<?xml version="1.0" standalone="no"?>
<!DOCTYPE svg PUBLIC "-//W3C//DTD SVG 20010904//EN"
 "http://www.w3.org/TR/2001/REC-SVG-20010904/DTD/svg10.dtd">
<svg version="1.0" xmlns="http://www.w3.org/2000/svg"
 width="400.000000pt" height="400.000000pt" viewBox="0 0 400.000000 400.000000"
 preserveAspectRatio="xMidYMid meet">
<metadata>
Created by potrace 1.11, written by Peter Selinger 2001-2013
</metadata>
<g transform="translate(0.000000,400.000000) scale(0.100000,-0.100000)"
fill="#000000" stroke="none">
<path d="M1885 3678 c-17 -17 -17 -20 -3 -15 11 4 19 0 23 -13 8 -25 35 -15
35 14 0 17 -2 18 -10 6 -8 -12 -10 -11 -10 8 0 27 -9 27 -35 0z"/>
<path d="M1817 3675 c-4 -8 -2 -15 3 -15 4 0 -3 -21 -16 -46 -20 -37 -21 -45
-9 -40 9 3 19 6 21 6 2 0 4 9 4 20 0 14 7 20 23 20 13 0 17 3 11 8 -6 4 -11
18 -10 31 1 28 -19 39 -27 16z"/>
<path d="M2038 3674 c-4 -3 -23 -6 -42 -6 -29 0 -36 -4 -36 -19 0 -20 33 -59
50 -59 6 0 10 10 11 23 0 14 2 17 6 7 3 -8 15 -25 26 -37 l20 -23 -26 0 c-15
0 -27 5 -27 10 0 13 -37 13 -45 1 -3 -5 -1 -12 5 -16 15 -9 12 -25 -5 -25 -7
0 -18 8 -24 17 -6 12 -20 17 -48 16 -27 -2 -32 0 -18 6 17 7 16 8 -9 15 -22 5
-33 2 -47 -13 -19 -20 -25 -42 -11 -40 17 3 35 -2 29 -8 -4 -3 1 -12 11 -19
16 -13 16 -13 0 -14 -25 0 -11 -28 23 -45 41 -22 49 -19 43 14 -5 23 -2 29 15
34 28 7 33 -4 16 -36 -7 -14 -11 -35 -8 -46 5 -19 7 -19 29 -4 23 15 24 15 30
-16 8 -40 38 -39 42 2 3 26 22 40 22 16 0 -8 6 -7 17 2 15 13 16 11 10 -23 -3
-21 -2 -38 1 -38 12 0 42 56 35 64 -3 3 -1 6 5 6 7 0 12 -4 12 -10 0 -5 5 -10
10 -10 6 0 10 10 10 23 1 20 2 21 14 5 18 -25 46 -23 46 2 0 13 -10 24 -25 30
-17 6 -23 14 -19 25 4 9 12 14 19 11 22 -8 27 8 7 24 -11 8 -23 25 -27 38 -5
18 -2 22 15 22 16 0 20 -5 16 -15 -4 -10 1 -15 14 -15 11 0 20 -6 20 -14 0 -7
7 -19 15 -26 13 -11 14 -10 8 7 -10 26 -72 99 -81 96 -4 -2 -7 3 -7 10 0 6 -8
18 -19 26 -15 12 -22 12 -39 1 -15 -9 -22 -10 -25 -1 -2 6 -11 11 -21 11 -9 0
-22 5 -27 10 -6 6 -13 8 -16 4z m152 -160 c0 -16 -36 -19 -45 -4 -4 6 -1 17 5
26 14 16 40 2 40 -22z m-292 -49 c-3 -3 -9 2 -12 12 -6 14 -5 15 5 6 7 -7 10
-15 7 -18z"/>
<path d="M2200 3656 c0 -9 5 -16 10 -16 6 0 10 4 10 9 0 6 -4 13 -10 16 -5 3
-10 -1 -10 -9z"/>
<path d="M2298 3632 c-36 -7 -30 -54 15 -104 28 -32 39 -35 35 -10 -1 9 1 23
6 31 6 10 5 12 -3 7 -6 -4 -14 -1 -17 8 -3 8 -15 18 -26 22 -18 5 -18 7 -2 18
20 15 16 33 -8 28z"/>
<path d="M1639 3584 c-18 -19 -41 -34 -51 -34 -11 0 -15 -5 -12 -14 3 -8 1
-17 -5 -21 -7 -3 -11 2 -11 14 0 26 -5 26 -31 0 -23 -23 -43 -89 -28 -89 5 0
9 -9 9 -20 0 -41 -20 -18 -26 30 -4 32 -11 50 -20 50 -8 0 -14 5 -14 10 0 6 5
10 12 10 6 0 9 2 7 5 -3 2 -15 2 -27 -1 -15 -4 -23 -17 -28 -39 -4 -22 -13
-35 -26 -38 -16 -5 -20 -12 -16 -36 3 -23 1 -31 -11 -32 -11 0 -12 -2 -3 -6
22 -9 62 7 63 25 0 13 3 13 11 -5 7 -15 19 -22 37 -21 65 2 111 -6 111 -19 0
-26 37 -13 50 17 13 31 30 40 30 16 0 -9 8 -12 24 -9 17 4 22 10 19 24 -3 10
-11 19 -19 19 -7 0 -15 4 -19 10 -7 12 5 60 16 60 5 0 6 -6 4 -12 -3 -7 0 -20
5 -28 9 -13 11 -13 19 -1 5 8 7 20 4 28 -3 8 0 13 7 11 7 -2 15 3 17 10 3 6
-2 12 -11 12 -9 0 -16 5 -16 11 0 7 14 8 43 4 34 -6 40 -5 30 6 -7 7 -13 21
-13 31 0 10 -7 18 -15 18 -8 0 -15 5 -15 10 0 6 7 10 15 10 8 0 15 4 15 9 0 4
-22 8 -49 8 -43 0 -54 -4 -82 -33z"/>
<path d="M1916 3604 c-9 -22 -8 -24 9 -24 8 0 15 9 15 20 0 24 -15 27 -24 4z"/>
<path d="M1950 3589 c0 -5 5 -7 10 -4 6 3 10 8 10 11 0 2 -4 4 -10 4 -5 0 -10
-5 -10 -11z"/>
<path d="M2440 3560 c0 -12 -6 -28 -14 -36 -13 -12 -17 -12 -30 2 -15 14 -16
14 -16 -2 0 -23 58 -74 76 -67 8 3 14 0 14 -5 0 -7 14 -9 35 -5 26 4 36 2 41
-11 4 -9 17 -16 34 -16 15 0 33 -6 39 -14 10 -12 75 -32 92 -28 8 2 22 -48 15
-55 -2 -3 -18 9 -34 26 -20 22 -38 31 -58 30 -24 -2 -25 -2 -6 -6 16 -3 25
-14 29 -34 3 -16 9 -29 14 -29 4 0 18 -10 29 -22 l21 -23 -23 -6 -23 -6 26
-11 c18 -7 28 -21 32 -41 4 -17 12 -31 19 -31 13 0 58 -61 58 -78 0 -5 9 -17
19 -26 21 -19 35 -8 25 21 -6 15 -4 16 7 6 7 -7 21 -13 31 -13 10 0 18 -4 18
-10 0 -5 7 -10 15 -10 12 0 11 7 -7 35 -13 19 -28 33 -34 31 -7 -3 -27 11 -45
30 -37 38 -32 44 12 13 26 -18 28 -19 23 -2 -4 10 -13 23 -20 29 -9 7 -11 20
-6 38 l8 28 32 -51 c20 -31 43 -53 58 -57 37 -9 40 2 5 20 -17 9 -30 20 -30
24 6 38 -54 100 -104 109 -21 3 -35 8 -32 11 2 3 -3 11 -12 17 -15 11 -15 15
-4 29 7 9 11 17 7 17 -3 1 -9 2 -13 3 -22 5 -50 31 -46 43 3 7 1 13 -5 13 -5
0 -13 -7 -16 -16 -5 -13 -9 -14 -21 -4 -8 7 -12 16 -9 21 3 5 0 9 -5 9 -6 0
-11 7 -11 15 0 8 -4 15 -10 15 -5 0 -10 6 -10 14 0 9 -7 12 -20 9 -11 -3 -20
0 -20 6 0 6 -5 11 -10 11 -7 0 -9 -14 -5 -37 4 -30 3 -33 -4 -16 -14 31 -49
64 -56 53 -4 -6 -1 -10 6 -10 7 0 9 -3 6 -6 -4 -4 -13 -1 -22 6 -9 7 -18 10
-22 6 -3 -3 -1 -6 5 -6 7 0 12 -4 12 -8 0 -4 -8 -8 -19 -8 -13 0 -18 7 -18 23
0 16 5 23 18 23 11 0 19 4 19 10 0 5 -6 7 -14 4 -7 -3 -21 2 -30 11 -15 15
-16 15 -16 -5z m363 -292 c15 -7 27 -19 27 -25 0 -17 -15 -16 -34 2 -8 8 -19
15 -25 15 -6 0 -11 5 -11 10 0 13 10 13 43 -2z"/>
<path d="M2285 3439 c-9 -28 1 -36 14 -10 7 12 7 22 2 26 -5 3 -13 -4 -16 -16z"/>
<path d="M1775 3410 c3 -5 11 -10 16 -10 6 0 7 5 4 10 -3 6 -11 10 -16 10 -6
0 -7 -4 -4 -10z"/>
<path d="M1980 3380 c0 -5 5 -10 10 -10 6 0 10 5 10 10 0 6 -4 10 -10 10 -5 0
-10 -4 -10 -10z"/>
<path d="M2940 3107 c0 -7 6 -22 14 -32 13 -18 13 -17 11 6 -4 38 -4 39 -15
39 -5 0 -10 -6 -10 -13z"/>
<path d="M3000 3032 c0 -12 19 -26 26 -19 2 2 -2 10 -11 17 -9 8 -15 8 -15 2z"/>
<path d="M2942 2985 c6 -14 17 -25 25 -25 18 0 16 14 -5 33 -26 24 -33 21 -20
-8z"/>
<path d="M2896 2972 c-3 -5 1 -15 9 -22 9 -7 22 -27 31 -45 8 -18 23 -35 33
-38 16 -4 15 0 -5 38 -28 49 -59 80 -68 67z"/>
<path d="M1031 2911 c-8 -6 -9 -11 -3 -15 6 -3 14 -1 17 5 9 14 2 20 -14 10z"/>
<path d="M2996 2905 c4 -8 8 -15 10 -15 2 0 4 7 4 15 0 8 -4 15 -10 15 -5 0
-7 -7 -4 -15z"/>
<path d="M2957 2809 c7 -7 15 -10 18 -7 3 3 -2 9 -12 12 -14 6 -15 5 -6 -5z"/>
<path d="M977 2763 c-4 -3 -7 -13 -7 -22 1 -13 3 -13 11 2 11 19 8 33 -4 20z"/>
<path d="M3000 2766 c0 -2 7 -9 15 -16 13 -11 14 -10 9 4 -5 14 -24 23 -24 12z"/>
<path d="M2991 2713 c4 -42 -2 -63 -17 -63 -9 0 -18 9 -21 20 -6 24 -21 26
-30 5 -6 -17 24 -153 37 -170 10 -12 8 -71 -3 -81 -4 -4 -7 1 -7 11 0 15 -2
17 -12 6 -11 -10 -10 -15 3 -24 17 -13 41 -95 33 -109 -9 -13 16 -38 37 -38
18 0 23 14 20 52 -1 9 3 19 8 23 7 4 6 16 -4 35 -19 37 -19 40 3 40 10 0 25 9
34 19 17 20 16 41 -2 150 -6 29 -8 57 -5 61 3 4 -3 11 -12 14 -15 6 -15 8 -3
16 13 8 13 10 -2 10 -9 0 -18 -6 -21 -12 -2 -7 -7 2 -11 20 -8 33 -29 45 -25
15z m29 -79 c0 -16 -16 -19 -25 -4 -8 13 4 32 16 25 5 -4 9 -13 9 -21z"/>
<path d="M3060 2714 c0 -8 5 -12 10 -9 6 3 10 10 10 16 0 5 -4 9 -10 9 -5 0
-10 -7 -10 -16z"/>
<path d="M970 2541 c-14 -27 -12 -62 5 -86 14 -18 15 -17 13 18 -2 20 -6 37
-10 37 -4 0 -3 11 2 25 11 30 5 33 -10 6z"/>
<path d="M3055 2401 c-3 -5 -1 -12 5 -16 5 -3 10 1 10 9 0 18 -6 21 -15 7z"/>
<path d="M1021 2354 c0 -11 3 -14 6 -6 3 7 2 16 -1 19 -3 4 -6 -2 -5 -13z"/>
<path d="M2256 2361 c-11 -17 -76 -22 -111 -10 -27 10 -38 10 -47 1 -7 -7 -20
-12 -31 -12 -10 0 -28 -5 -40 -12 -12 -7 -31 -13 -42 -15 -11 -2 -24 -8 -29
-13 -14 -14 -46 -13 -46 1 0 6 7 8 16 5 8 -3 12 -2 9 4 -8 13 -35 13 -35 1 0
-5 -13 -12 -29 -16 -16 -3 -32 -13 -35 -21 -3 -9 -10 -13 -15 -9 -5 3 -13 0
-17 -6 -5 -9 -14 -4 -29 15 -21 26 -24 27 -64 16 -23 -6 -47 -8 -53 -4 -20 13
-69 14 -140 6 -47 -6 -68 -5 -68 2 0 6 -4 5 -9 -3 -6 -9 -10 -10 -12 -2 -3 8
-19 7 -57 -4 -29 -9 -56 -14 -60 -12 -4 3 -18 0 -32 -5 -24 -10 -24 -11 -5
-18 13 -6 15 -9 5 -9 -8 0 -21 3 -28 8 -20 12 -62 -10 -68 -36 -4 -15 -14 -23
-28 -23 -12 0 -26 -4 -32 -10 -5 -5 -32 -13 -59 -16 -28 -4 -57 -13 -65 -20
-9 -7 -41 -23 -73 -35 l-58 -22 6 -76 c5 -59 14 -93 43 -151 20 -41 45 -95 57
-120 11 -25 23 -47 26 -50 4 -3 10 -15 14 -28 4 -13 21 -32 38 -43 54 -32 301
-25 487 16 23 5 22 4 -2 -6 -16 -6 -28 -15 -28 -20 0 -5 -3 -8 -7 -7 -5 1 -46
-4 -93 -11 -47 -7 -89 -12 -94 -11 -5 1 -12 -4 -17 -12 -5 -8 -1 -17 14 -25
13 -6 24 -8 28 -2 3 5 38 11 77 12 71 3 72 3 72 -23 0 -14 -7 -36 -15 -50 -8
-14 -18 -33 -21 -42 -3 -10 -13 -18 -20 -18 -8 0 -14 -9 -14 -19 0 -10 -7 -21
-15 -25 -8 -3 -15 -13 -15 -21 0 -9 -14 -29 -30 -44 -17 -15 -27 -30 -24 -34
12 -12 24 -8 24 8 0 9 9 15 25 15 16 0 25 6 25 15 0 9 11 20 24 25 14 5 30 18
36 30 6 11 17 20 25 20 20 0 55 -31 55 -48 0 -7 5 -10 11 -7 5 4 18 0 27 -9
18 -15 24 -17 100 -19 29 -1 38 -4 27 -10 -30 -16 -14 -26 35 -20 40 5 50 3
48 -8 -2 -7 4 -14 12 -15 8 0 23 -2 33 -2 10 -1 16 -6 13 -10 -2 -4 8 -9 23
-10 30 -2 57 20 46 38 -3 5 -2 10 3 10 6 0 15 14 21 30 7 20 17 30 30 30 24 0
27 10 9 29 -11 11 -10 13 4 8 10 -3 24 0 32 8 19 20 40 19 32 -1 -4 -10 -2
-14 6 -11 7 2 12 10 11 16 -2 6 11 11 30 12 40 1 61 10 65 28 2 8 12 27 23 42
10 15 19 32 19 39 0 6 5 8 10 5 6 -4 17 -1 25 5 11 9 28 -3 89 -64 42 -42 80
-76 85 -76 15 0 26 23 13 28 -7 2 -12 12 -12 23 0 10 -4 19 -9 19 -6 0 -18 14
-28 30 -9 17 -25 32 -34 35 -10 3 -22 19 -28 35 -6 18 -21 34 -36 40 -31 12
-29 34 3 38 12 2 22 9 22 15 0 9 2 9 8 0 6 -9 19 -9 57 2 l50 13 -50 2 c-68 2
-179 11 -183 15 -2 1 31 6 73 10 87 8 101 25 19 25 -30 0 -86 5 -124 11 -58
10 -74 17 -104 48 -35 36 -79 120 -55 105 9 -5 10 -2 4 12 -4 10 -10 43 -13
72 -4 43 -2 52 12 52 9 0 16 -3 16 -8 0 -4 15 -13 33 -20 17 -8 43 -19 57 -27
14 -7 55 -16 93 -20 37 -4 67 -11 67 -16 0 -5 13 -9 30 -9 22 0 28 4 24 15 -5
11 1 15 20 15 14 0 34 4 44 9 20 10 211 60 262 68 19 3 39 12 43 19 4 8 14 14
22 14 7 0 16 6 19 13 3 6 4 -24 2 -68 -3 -54 -11 -97 -27 -132 -19 -45 -30
-56 -73 -77 -58 -27 -103 -41 -161 -51 -57 -9 -75 -15 -75 -26 0 -31 255 36
304 79 27 25 51 77 75 167 13 44 29 94 38 112 12 24 14 55 11 132 -2 55 -6
102 -8 104 -3 3 -32 8 -65 11 -33 4 -85 11 -115 16 -30 5 -120 12 -200 14 -80
3 -146 5 -148 5 -2 1 0 6 3 11 3 6 -3 10 -14 10 -11 0 -22 -4 -25 -9z m415
-98 c51 -23 53 -25 63 -65 6 -25 5 -26 -19 -15 -14 7 -25 18 -25 25 0 18 -9
15 -47 -14 -18 -14 -33 -21 -33 -15 0 5 -13 12 -30 16 -16 4 -30 10 -30 15 0
14 -50 20 -197 22 -189 2 -215 15 -73 37 41 6 86 13 100 15 14 2 75 3 135 2
85 -2 121 -7 156 -23z m-821 -63 c0 -5 -4 -10 -10 -10 -5 0 -10 5 -10 10 0 6
5 10 10 10 6 0 10 -4 10 -10z m142 -22 c-7 -7 -12 -18 -12 -26 0 -13 -23 -42
-33 -42 -12 0 9 46 27 62 24 20 36 24 18 6z m-577 -29 c19 -20 19 -20 -43 -17
-69 3 -83 20 -25 29 21 3 41 7 44 8 3 0 14 -8 24 -20z m-155 0 c0 -11 -51 -61
-57 -56 -9 9 -35 -22 -28 -33 3 -5 2 -10 -3 -10 -13 0 -22 49 -10 56 5 3 6 14
3 24 -4 14 0 20 17 23 32 5 78 3 78 -4z m34 -5 c9 -22 8 -24 -9 -18 -8 4 -15
12 -15 20 0 19 16 18 24 -2z m-159 -34 c-8 -16 -15 -40 -15 -54 0 -14 -5 -28
-10 -31 -6 -4 -7 -11 -4 -17 7 -11 -14 -6 -86 22 -25 10 -46 24 -48 32 -5 27
79 65 171 77 4 1 1 -12 -8 -29z m1280 -50 c-3 -5 -21 -10 -38 -9 -31 1 -31 1
-7 9 36 11 52 11 45 0z m25 -45 c-7 -8 -17 -12 -22 -9 -6 4 -5 10 3 15 22 14
33 10 19 -6z m-576 -1 c9 -3 16 -12 16 -20 0 -8 4 -14 9 -14 5 0 13 -15 16
-32 22 -100 150 -278 200 -278 9 0 32 -16 51 -34 34 -33 35 -38 29 -78 -10
-59 -19 -69 -56 -56 -16 5 -48 7 -72 4 -23 -4 -54 -8 -69 -9 -14 -1 -25 -4
-23 -7 2 -3 -8 -13 -21 -23 -20 -15 -24 -15 -24 -3 0 22 -90 39 -118 22 -7 -4
-19 -2 -27 4 -8 6 -18 9 -24 6 -5 -3 -24 0 -41 8 -32 13 -74 11 -66 -3 11 -17
-15 -33 -50 -33 -22 0 -45 -5 -52 -11 -20 -16 -34 6 -36 56 0 25 1 44 4 42 12
-7 103 93 145 159 32 52 50 94 66 163 25 106 50 143 98 143 16 0 36 -3 45 -6z
m-380 -55 c-3 -5 -26 -9 -52 -9 -44 1 -45 2 -24 14 25 13 85 10 76 -5z m136
11 c0 -5 -4 -10 -9 -10 -6 0 -13 5 -16 10 -3 6 1 10 9 10 9 0 16 -4 16 -10z
m-523 -80 c-2 -52 0 -70 10 -70 7 0 13 4 13 9 0 5 16 12 35 15 19 4 39 14 44
23 8 15 12 15 25 4 9 -8 19 -11 23 -8 3 4 11 3 17 -2 10 -9 158 -17 181 -11
13 4 52 9 93 14 17 1 35 6 39 9 3 4 17 7 31 7 13 0 32 10 43 23 l19 22 -6 -55
c-9 -79 -45 -153 -86 -176 -18 -11 -69 -30 -114 -43 -70 -20 -98 -22 -220 -19
-165 4 -197 15 -231 80 -50 96 -85 229 -64 243 6 3 11 2 11 -3 0 -16 49 -20
61 -6 10 12 56 23 71 16 4 -1 6 -34 5 -72z m883 42 c0 -15 -2 -15 -10 -2 -13
20 -13 33 0 25 6 -3 10 -14 10 -23z m325 8 c3 -5 1 -10 -4 -10 -6 0 -11 5 -11
10 0 6 2 10 4 10 3 0 8 -4 11 -10z m-85 -334 c0 -3 -4 -8 -10 -11 -5 -3 -10
-1 -10 4 0 6 5 11 10 11 6 0 10 -2 10 -4z m30 -56 c0 -5 -7 -10 -15 -10 -8 0
-15 5 -15 10 0 6 7 10 15 10 8 0 15 -4 15 -10z"/>
<path d="M2640 2230 c0 -5 7 -10 15 -10 8 0 15 5 15 10 0 6 -7 10 -15 10 -8 0
-15 -4 -15 -10z"/>
<path d="M1011 2314 c0 -11 3 -14 6 -6 3 7 2 16 -1 19 -3 4 -6 -2 -5 -13z"/>
<path d="M1010 2220 c0 -11 5 -20 10 -20 6 0 10 9 10 20 0 11 -4 20 -10 20 -5
0 -10 -9 -10 -20z"/>
<path d="M3037 2183 c-12 -11 -8 -23 8 -23 8 0 15 7 15 15 0 16 -12 20 -23 8z"/>
<path d="M2850 2112 c0 -4 18 -7 40 -7 22 0 40 3 40 7 0 5 -18 8 -40 8 -22 0
-40 -3 -40 -8z"/>
<path d="M3137 2066 c-54 -33 -80 -73 -44 -67 4 0 7 -6 7 -14 0 -8 5 -15 10
-15 6 0 10 -4 10 -10 0 -5 10 -35 22 -67 l21 -57 19 54 c34 102 37 129 22 166
-8 19 -18 34 -22 34 -4 0 -24 -11 -45 -24z"/>
<path d="M3055 1970 c-3 -5 -1 -10 4 -10 6 0 11 5 11 10 0 6 -2 10 -4 10 -3 0
-8 -4 -11 -10z"/>
<path d="M3017 1913 c-21 -20 9 -80 36 -70 14 5 14 9 -1 41 -16 36 -23 42 -35
29z"/>
<path d="M3060 1773 c1 -51 2 -56 14 -40 10 13 12 27 6 47 -4 16 -6 31 -3 33
2 3 0 8 -6 12 -7 4 -11 -13 -11 -52z"/>
<path d="M1060 1581 c0 -11 7 -51 15 -89 8 -41 12 -91 8 -120 -4 -36 -1 -59
11 -83 13 -24 20 -75 26 -174 4 -77 12 -151 18 -165 6 -14 17 -50 26 -80 9
-30 24 -67 34 -81 17 -26 55 -82 129 -189 21 -30 51 -77 67 -105 16 -27 41
-64 57 -80 27 -29 99 -221 99 -264 0 -10 -26 -36 -57 -59 -32 -23 -67 -49 -78
-57 -11 -9 -27 -20 -35 -25 -9 -6 148 -10 422 -10 l438 1 11 22 c18 33 80 96
109 110 18 9 24 19 22 35 -6 44 50 97 161 154 23 11 53 29 66 39 13 11 30 19
37 19 17 0 93 52 94 63 0 5 7 15 15 23 30 31 14 37 -17 8 -56 -53 -101 -79
-138 -80 -19 -1 -65 -15 -102 -33 -37 -17 -74 -31 -83 -31 -18 0 -20 16 -2 23
6 3 2 6 -10 6 -12 1 -23 -4 -25 -10 -4 -13 -78 -2 -78 12 0 5 -7 9 -15 9 -8 0
-15 -7 -15 -16 0 -14 -2 -14 -17 1 -13 14 -27 16 -70 10 -55 -7 -65 -1 -35 21
12 10 13 13 3 14 -8 0 -19 -7 -25 -15 -9 -11 -20 -12 -50 -5 -21 4 -45 6 -52
3 -10 -4 -12 0 -8 11 8 21 -33 22 -56 1 -11 -10 -42 -15 -100 -17 -71 -1 -85
2 -98 18 -13 16 -14 16 -9 1 8 -21 0 -22 -20 -1 -9 9 -25 13 -37 10 -21 -5
-76 13 -76 25 0 16 -56 64 -71 61 -11 -2 -21 8 -29 30 -7 18 -14 27 -17 21 -7
-18 -23 -16 -23 2 0 8 -9 33 -21 55 -12 22 -19 47 -15 55 3 8 1 15 -4 15 -10
0 -15 16 -24 71 -4 23 -13 39 -24 41 -9 3 -26 28 -37 57 -11 28 -23 51 -27 51
-4 0 -12 17 -18 39 -5 21 -18 45 -27 52 -15 13 -16 11 -11 -9 4 -15 2 -22 -5
-19 -12 4 -45 92 -51 137 -2 14 -7 37 -10 51 -6 20 -4 26 8 26 9 0 16 -4 16
-9 0 -5 5 -6 10 -3 6 3 10 -1 10 -9 0 -8 5 -18 11 -22 9 -5 10 1 4 22 -4 16
-7 41 -6 56 1 14 -5 33 -13 41 -8 8 -12 17 -9 21 4 3 -1 6 -11 6 -9 0 -15 -3
-13 -7 3 -5 -1 -13 -8 -20 -10 -10 -14 -7 -19 11 -3 12 -4 33 -1 45 2 12 0 30
-4 39 -42 84 -49 107 -38 114 9 6 9 8 0 8 -7 0 -13 11 -13 24 0 14 -4 28 -10
31 -5 3 -10 18 -10 32 0 14 -8 32 -17 39 -25 19 -33 17 -33 -5z m173 -362 c-4
-16 -8 -17 -14 -7 -13 19 -11 28 5 28 9 0 12 -7 9 -21z m1077 -889 c0 -5 -4
-10 -10 -10 -5 0 -10 5 -10 10 0 6 5 10 10 10 6 0 10 -4 10 -10z m-410 -300
c0 -11 -4 -20 -10 -20 -5 0 -10 2 -10 4 0 2 -3 11 -6 20 -4 11 -1 16 10 16 9
0 16 -8 16 -20z"/>
<path d="M1252 1308 c-7 -7 -12 -16 -12 -21 0 -5 7 -1 16 8 9 9 14 18 12 20
-2 3 -10 -1 -16 -7z"/>
<path d="M2340 1205 c-7 -8 -19 -15 -26 -15 -12 0 -12 -4 -2 -20 7 -10 9 -23
4 -27 -7 -8 -142 -10 -261 -4 -38 2 -78 -3 -110 -14 -27 -10 -84 -19 -125 -20
-41 -2 -96 -8 -121 -15 -64 -15 -145 -10 -142 10 1 8 -16 26 -37 40 -22 13
-40 30 -40 37 0 7 -9 13 -20 13 -11 0 -19 -6 -17 -12 1 -7 -6 -12 -15 -12 -10
1 -18 -4 -18 -12 0 -17 -12 -18 -28 -2 -14 14 -15 12 -3 -30 6 -19 6 -32 1
-32 -5 0 -7 -8 -3 -17 10 -30 34 -52 50 -46 17 7 93 -16 93 -28 0 -4 9 -11 20
-14 13 -4 20 -15 20 -31 0 -13 5 -24 10 -24 6 0 10 7 10 15 0 8 7 15 16 15 11
0 14 -5 9 -17 -8 -21 -8 -21 -6 -50 1 -28 17 -30 24 -3 5 20 27 28 27 10 0 -5
-4 -10 -10 -10 -16 0 -12 -49 6 -79 14 -24 56 -50 89 -56 6 -1 18 -6 29 -10
11 -5 21 -3 26 5 5 8 9 9 14 1 10 -16 99 -13 122 4 10 8 26 15 34 15 8 0 20
12 27 26 10 21 10 29 -2 40 -7 8 -18 14 -23 14 -6 0 -13 7 -16 16 -5 13 -16
16 -56 12 -54 -5 -67 6 -42 35 23 27 5 35 -100 43 -49 4 -91 11 -94 15 -8 14
45 32 121 40 39 4 102 13 140 19 39 7 81 12 94 11 13 0 29 3 35 8 6 5 34 9 61
9 108 1 237 28 256 56 4 4 27 11 53 13 49 6 55 13 31 33 -8 7 -12 16 -9 21 3
5 -8 12 -25 15 -17 4 -31 10 -31 15 0 14 -26 10 -40 -6z m-640 -346 c0 -5 -5
-9 -11 -9 -5 0 -7 -4 -4 -10 3 -5 0 -10 -8 -10 -11 0 -17 32 -8 47 3 6 31 -10
31 -18z m97 -15 c-3 -3 -12 -4 -19 -1 -8 3 -5 6 6 6 11 1 17 -2 13 -5z"/>
<path d="M1680 1200 c-13 -8 -12 -10 3 -10 9 0 17 5 17 10 0 12 -1 12 -20 0z"/>
<path d="M1234 1088 c3 -18 5 -37 5 -43 1 -5 5 -4 10 3 6 10 10 6 16 -15 l8
-28 7 30 c8 35 -3 60 -30 75 -18 10 -20 8 -16 -22z"/>
<path d="M2015 987 c-46 -28 -41 -47 6 -23 18 9 38 16 46 16 7 0 13 5 13 10 0
14 -40 12 -65 -3z"/>
<path d="M1870 918 c0 -19 2 -20 10 -8 13 19 13 30 0 30 -5 0 -10 -10 -10 -22z"/>
<path d="M2435 401 c-3 -5 -1 -12 5 -16 5 -3 10 1 10 9 0 18 -6 21 -15 7z"/>
<path d="M2444 205 c-18 -14 -18 -14 7 -15 15 0 29 -7 33 -15 3 -8 11 -15 19
-15 14 0 57 -44 69 -70 6 -13 7 -12 7 2 1 15 -46 70 -95 111 -18 15 -23 15
-40 2z"/>
</g>
</svg>
